<?xml version="1.0" encoding="UTF-8" standalone="no"?>
<svg
   viewBox="0 0 63.631359 14.689593"
   id="vector"
   version="1.1"
   sodipodi:docname="logo-svg.svg"
   width="63.631359"
   height="14.689593"
   inkscape:version="1.1 (c68e22c387, 2021-05-23)"
   xmlns:inkscape="http://www.inkscape.org/namespaces/inkscape"
   xmlns:sodipodi="http://sodipodi.sourceforge.net/DTD/sodipodi-0.dtd"
   xmlns="http://www.w3.org/2000/svg"
   xmlns:svg="http://www.w3.org/2000/svg">
  <defs
     id="defs33" />
  <sodipodi:namedview
     id="namedview31"
     pagecolor="#ffffff"
     bordercolor="#666666"
     borderopacity="1.0"
     inkscape:pageshadow="2"
     inkscape:pageopacity="0.0"
     inkscape:pagecheckerboard="0"
     showgrid="false"
     fit-margin-top="0"
     fit-margin-left="0"
     fit-margin-right="0"
     fit-margin-bottom="0"
     inkscape:zoom="4.6018519"
     inkscape:cx="31.617706"
     inkscape:cy="7.2796781"
     inkscape:window-width="1366"
     inkscape:window-height="705"
     inkscape:window-x="-8"
     inkscape:window-y="-8"
     inkscape:window-maximized="1"
     inkscape:current-layer="vector" />
  <g
     id="group_1"
     transform="matrix(0.14240173,0,0,0.14240173,-1.3951097,-4.7505288)">
    <g
       id="group"
       transform="translate(0,135.36005)">
      <path
         id="path"
         d="m 9.797,0 v -102 h 43.625 q 7.344,0 13.469,2.937 6.125,2.938 10.578,7.891 4.469,4.953 6.906,11.125 2.453,6.156 2.453,12.625 0,8.75 -4.109,16.641 -4.094,7.89 -11.375,12.843 Q 64.078,-33 54.141,-33 H 33.406 V 0 Z m 23.609,-53.594 h 19.297 q 2.735,0 5.031,-1.562 2.313,-1.578 3.75,-4.719 1.438,-3.141 1.438,-7.703 0,-4.703 -1.656,-7.766 -1.657,-3.062 -4.172,-4.484 -2.516,-1.438 -5.25,-1.438 H 33.406 Z"
         fill="#000000" />
      <path
         id="path_1"
         d="m 134.063,1 q -9.641,0 -17.141,-3.078 -7.484,-3.094 -12.75,-8.406 -5.25,-5.313 -7.984,-12.266 -2.735,-6.969 -2.735,-14.578 0,-10.578 4.828,-19.266 4.828,-8.687 13.891,-14.047 9.078,-5.359 21.891,-5.359 12.812,0 21.812,5.312 9,5.313 13.75,13.907 4.766,8.593 4.766,18.656 0,1.953 -0.219,3.844 -0.219,1.89 -0.359,3.281 h -55.875 q 0.437,5 2.812,8.437 2.375,3.422 6.109,5.219 3.75,1.781 7.922,1.781 5.188,0 9.719,-2.437 4.547,-2.453 6.266,-6.625 l 19.593,5.469 q -2.89,5.89 -8.156,10.437 -5.25,4.531 -12.375,7.125 Q 142.703,1 134.063,1 Z m -16.704,-46.109 h 32.829 q -0.579,-4.344 -2.735,-7.563 -2.156,-3.219 -5.765,-4.984 -3.594,-1.782 -7.907,-1.782 -4.468,0 -8,1.782 -3.531,1.765 -5.687,4.984 -2.156,3.219 -2.735,7.563 z"
         fill="#000000" />
      <path
         id="path_2"
         d="m 180.172,-22.438 q 0,-7.296 4.172,-12.765 4.172,-5.485 11.515,-8.641 7.344,-3.156 16.86,-3.156 4.594,0 9.062,0.797 4.469,0.797 7.782,2.234 v -3.312 q 0,-6.078 -3.75,-9.328 -3.735,-3.25 -11.375,-3.25 -6.329,0 -11.875,2.156 -5.547,2.156 -11.735,6.187 l -6.922,-14.687 q 7.5,-4.891 15.625,-7.344 8.141,-2.453 17.219,-2.453 16.984,0 26.406,8 9.438,7.984 9.438,23.109 v 19.375 q 0,3.391 1.078,4.735 1.094,1.343 3.828,1.625 V 0 q -2.891,0.578 -5.406,0.859 -2.516,0.297 -4.391,0.297 -6.484,0 -9.875,-2.672 -3.375,-2.672 -4.234,-7.297 l -0.438,-3.437 q -5.031,6.484 -12.015,9.875 Q 214.156,1 206.516,1 q -7.485,0 -13.469,-3.078 -5.969,-3.094 -9.422,-8.422 -3.453,-5.344 -3.453,-11.938 z m 45.781,2.563 q 1.594,-1.219 2.594,-2.703 1.016,-1.485 1.016,-2.828 v -6.328 q -2.875,-1.079 -6.407,-1.688 -3.531,-0.609 -6.562,-0.609 -6.328,0 -10.516,2.625 -4.172,2.625 -4.172,6.953 0,2.422 1.438,4.453 1.453,2.016 3.969,3.234 2.515,1.203 5.968,1.203 3.469,0 6.922,-1.203 3.453,-1.218 5.75,-3.109 z"
         fill="#000000" />
      <path
         id="path_3"
         d="m 305.063,1 q -9.641,0 -17.141,-3.109 -7.484,-3.11 -12.75,-8.469 -5.25,-5.375 -7.984,-12.297 -2.735,-6.922 -2.735,-14.703 0,-10.172 4.828,-18.922 4.828,-8.766 13.891,-14.125 9.078,-5.375 21.891,-5.375 12.968,0 21.968,5.547 9,5.547 13.453,14.469 l -22.453,6.781 q -2.172,-3.469 -5.562,-5.328 -3.375,-1.875 -7.547,-1.875 -4.75,0 -8.578,2.359 -3.813,2.359 -6.047,6.516 -2.219,4.156 -2.219,9.968 0,5.688 2.297,9.985 2.313,4.297 6.047,6.719 3.75,2.421 8.5,2.421 2.875,0 5.391,-0.937 2.531,-0.938 4.609,-2.656 2.094,-1.735 3.25,-3.891 l 22.453,6.906 q -2.734,5.766 -7.844,10.297 -5.109,4.531 -12.031,7.125 Q 313.844,1 305.063,1 Z"
         fill="#000000" />
      <path
         id="path_4"
         d="m 387.063,1 q -9.641,0 -17.141,-3.078 -7.484,-3.094 -12.75,-8.406 -5.25,-5.313 -7.984,-12.266 -2.735,-6.969 -2.735,-14.578 0,-10.578 4.828,-19.266 4.828,-8.687 13.891,-14.047 9.078,-5.359 21.891,-5.359 12.812,0 21.812,5.312 9,5.313 13.75,13.907 4.766,8.593 4.766,18.656 0,1.953 -0.219,3.844 -0.219,1.89 -0.359,3.281 h -55.875 q 0.437,5 2.812,8.437 2.375,3.422 6.109,5.219 3.75,1.781 7.922,1.781 5.188,0 9.719,-2.437 4.547,-2.453 6.266,-6.625 l 19.593,5.469 q -2.89,5.89 -8.156,10.437 -5.25,4.531 -12.375,7.125 Q 395.703,1 387.063,1 Z m -16.704,-46.109 h 32.829 q -0.579,-4.344 -2.735,-7.563 -2.156,-3.219 -5.765,-4.984 -3.594,-1.782 -7.907,-1.782 -4.468,0 -8,1.782 -3.531,1.765 -5.687,4.984 -2.156,3.219 -2.735,7.563 z"
         fill="#000000" />
      <path
         id="path_5"
         d="m 437.781,0 v -23.469 h 18.86 V 0 Z"
         fill="#000000" />
    </g>
  </g>
</svg>
